0 A real grid-legal pyramid, animated stone by stone
0 Name: pyramid-live.ldr
0 Author: machine-generated by spex-build from recipe "pyramid-live"
0 !SPEX recipe-hash 5a83f217234a2593
0 !SPEX recipe-version 1
1 71 60 -24 10 1 0 0 0 1 0 0 0 1 3009.dat
1 71 180 -24 10 1 0 0 0 1 0 0 0 1 3009.dat
1 71 280 -24 10 1 0 0 0 1 0 0 0 1 3010.dat
1 71 60 -24 30 1 0 0 0 1 0 0 0 1 3009.dat
1 71 180 -24 30 1 0 0 0 1 0 0 0 1 3009.dat
1 71 280 -24 30 1 0 0 0 1 0 0 0 1 3010.dat
1 71 60 -24 50 1 0 0 0 1 0 0 0 1 3009.dat
1 71 180 -24 50 1 0 0 0 1 0 0 0 1 3009.dat
1 71 280 -24 50 1 0 0 0 1 0 0 0 1 3010.dat
1 71 60 -24 70 1 0 0 0 1 0 0 0 1 3009.dat
1 71 180 -24 70 1 0 0 0 1 0 0 0 1 3009.dat
1 71 280 -24 70 1 0 0 0 1 0 0 0 1 3010.dat
1 71 60 -24 90 1 0 0 0 1 0 0 0 1 3009.dat
1 71 180 -24 90 1 0 0 0 1 0 0 0 1 3009.dat
1 71 280 -24 90 1 0 0 0 1 0 0 0 1 3010.dat
1 71 60 -24 110 1 0 0 0 1 0 0 0 1 3009.dat
1 71 180 -24 110 1 0 0 0 1 0 0 0 1 3009.dat
1 71 280 -24 110 1 0 0 0 1 0 0 0 1 3010.dat
1 71 60 -24 130 1 0 0 0 1 0 0 0 1 3009.dat
1 71 180 -24 130 1 0 0 0 1 0 0 0 1 3009.dat
1 71 280 -24 130 1 0 0 0 1 0 0 0 1 3010.dat
1 71 60 -24 150 1 0 0 0 1 0 0 0 1 3009.dat
1 71 180 -24 150 1 0 0 0 1 0 0 0 1 3009.dat
1 71 280 -24 150 1 0 0 0 1 0 0 0 1 3010.dat
1 71 60 -24 170 1 0 0 0 1 0 0 0 1 3009.dat
1 71 180 -24 170 1 0 0 0 1 0 0 0 1 3009.dat
1 71 280 -24 170 1 0 0 0 1 0 0 0 1 3010.dat
1 71 60 -24 190 1 0 0 0 1 0 0 0 1 3009.dat
1 71 180 -24 190 1 0 0 0 1 0 0 0 1 3009.dat
1 71 280 -24 190 1 0 0 0 1 0 0 0 1 3010.dat
1 71 60 -24 210 1 0 0 0 1 0 0 0 1 3009.dat
1 71 180 -24 210 1 0 0 0 1 0 0 0 1 3009.dat
1 71 280 -24 210 1 0 0 0 1 0 0 0 1 3010.dat
1 71 60 -24 230 1 0 0 0 1 0 0 0 1 3009.dat
1 71 180 -24 230 1 0 0 0 1 0 0 0 1 3009.dat
1 71 280 -24 230 1 0 0 0 1 0 0 0 1 3010.dat
1 71 60 -24 250 1 0 0 0 1 0 0 0 1 3009.dat
1 71 180 -24 250 1 0 0 0 1 0 0 0 1 3009.dat
1 71 280 -24 250 1 0 0 0 1 0 0 0 1 3010.dat
1 71 60 -24 270 1 0 0 0 1 0 0 0 1 3009.dat
1 71 180 -24 270 1 0 0 0 1 0 0 0 1 3009.dat
1 71 280 -24 270 1 0 0 0 1 0 0 0 1 3010.dat
1 71 60 -24 290 1 0 0 0 1 0 0 0 1 3009.dat
1 71 180 -24 290 1 0 0 0 1 0 0 0 1 3009.dat
1 71 280 -24 290 1 0 0 0 1 0 0 0 1 3010.dat
1 71 60 -24 310 1 0 0 0 1 0 0 0 1 3009.dat
1 71 180 -24 310 1 0 0 0 1 0 0 0 1 3009.dat
1 71 280 -24 310 1 0 0 0 1 0 0 0 1 3010.dat
0 STEP
1 71 80 -48 30 1 0 0 0 1 0 0 0 1 3009.dat
1 71 200 -48 30 1 0 0 0 1 0 0 0 1 3009.dat
1 71 280 -48 30 1 0 0 0 1 0 0 0 1 3004.dat
1 71 80 -48 50 1 0 0 0 1 0 0 0 1 3009.dat
1 71 200 -48 50 1 0 0 0 1 0 0 0 1 3009.dat
1 71 280 -48 50 1 0 0 0 1 0 0 0 1 3004.dat
1 71 80 -48 70 1 0 0 0 1 0 0 0 1 3009.dat
1 71 200 -48 70 1 0 0 0 1 0 0 0 1 3009.dat
1 71 280 -48 70 1 0 0 0 1 0 0 0 1 3004.dat
1 71 80 -48 90 1 0 0 0 1 0 0 0 1 3009.dat
1 71 200 -48 90 1 0 0 0 1 0 0 0 1 3009.dat
1 71 280 -48 90 1 0 0 0 1 0 0 0 1 3004.dat
1 71 80 -48 110 1 0 0 0 1 0 0 0 1 3009.dat
1 71 200 -48 110 1 0 0 0 1 0 0 0 1 3009.dat
1 71 280 -48 110 1 0 0 0 1 0 0 0 1 3004.dat
1 71 80 -48 130 1 0 0 0 1 0 0 0 1 3009.dat
1 71 200 -48 130 1 0 0 0 1 0 0 0 1 3009.dat
1 71 280 -48 130 1 0 0 0 1 0 0 0 1 3004.dat
1 71 80 -48 150 1 0 0 0 1 0 0 0 1 3009.dat
1 71 200 -48 150 1 0 0 0 1 0 0 0 1 3009.dat
1 71 280 -48 150 1 0 0 0 1 0 0 0 1 3004.dat
1 71 80 -48 170 1 0 0 0 1 0 0 0 1 3009.dat
1 71 200 -48 170 1 0 0 0 1 0 0 0 1 3009.dat
1 71 280 -48 170 1 0 0 0 1 0 0 0 1 3004.dat
1 71 80 -48 190 1 0 0 0 1 0 0 0 1 3009.dat
1 71 200 -48 190 1 0 0 0 1 0 0 0 1 3009.dat
1 71 280 -48 190 1 0 0 0 1 0 0 0 1 3004.dat
1 71 80 -48 210 1 0 0 0 1 0 0 0 1 3009.dat
1 71 200 -48 210 1 0 0 0 1 0 0 0 1 3009.dat
1 71 280 -48 210 1 0 0 0 1 0 0 0 1 3004.dat
1 71 80 -48 230 1 0 0 0 1 0 0 0 1 3009.dat
1 71 200 -48 230 1 0 0 0 1 0 0 0 1 3009.dat
1 71 280 -48 230 1 0 0 0 1 0 0 0 1 3004.dat
1 71 80 -48 250 1 0 0 0 1 0 0 0 1 3009.dat
1 71 200 -48 250 1 0 0 0 1 0 0 0 1 3009.dat
1 71 280 -48 250 1 0 0 0 1 0 0 0 1 3004.dat
1 71 80 -48 270 1 0 0 0 1 0 0 0 1 3009.dat
1 71 200 -48 270 1 0 0 0 1 0 0 0 1 3009.dat
1 71 280 -48 270 1 0 0 0 1 0 0 0 1 3004.dat
1 71 80 -48 290 1 0 0 0 1 0 0 0 1 3009.dat
1 71 200 -48 290 1 0 0 0 1 0 0 0 1 3009.dat
1 71 280 -48 290 1 0 0 0 1 0 0 0 1 3004.dat
0 STEP
1 71 100 -72 50 1 0 0 0 1 0 0 0 1 3009.dat
1 71 220 -72 50 1 0 0 0 1 0 0 0 1 3009.dat
1 71 100 -72 70 1 0 0 0 1 0 0 0 1 3009.dat
1 71 220 -72 70 1 0 0 0 1 0 0 0 1 3009.dat
1 71 100 -72 90 1 0 0 0 1 0 0 0 1 3009.dat
1 71 220 -72 90 1 0 0 0 1 0 0 0 1 3009.dat
1 71 100 -72 110 1 0 0 0 1 0 0 0 1 3009.dat
1 71 220 -72 110 1 0 0 0 1 0 0 0 1 3009.dat
1 71 100 -72 130 1 0 0 0 1 0 0 0 1 3009.dat
1 71 220 -72 130 1 0 0 0 1 0 0 0 1 3009.dat
1 71 100 -72 150 1 0 0 0 1 0 0 0 1 3009.dat
1 71 220 -72 150 1 0 0 0 1 0 0 0 1 3009.dat
1 71 100 -72 170 1 0 0 0 1 0 0 0 1 3009.dat
1 71 220 -72 170 1 0 0 0 1 0 0 0 1 3009.dat
1 71 100 -72 190 1 0 0 0 1 0 0 0 1 3009.dat
1 71 220 -72 190 1 0 0 0 1 0 0 0 1 3009.dat
1 71 100 -72 210 1 0 0 0 1 0 0 0 1 3009.dat
1 71 220 -72 210 1 0 0 0 1 0 0 0 1 3009.dat
1 71 100 -72 230 1 0 0 0 1 0 0 0 1 3009.dat
1 71 220 -72 230 1 0 0 0 1 0 0 0 1 3009.dat
1 71 100 -72 250 1 0 0 0 1 0 0 0 1 3009.dat
1 71 220 -72 250 1 0 0 0 1 0 0 0 1 3009.dat
1 71 100 -72 270 1 0 0 0 1 0 0 0 1 3009.dat
1 71 220 -72 270 1 0 0 0 1 0 0 0 1 3009.dat
0 STEP
1 71 120 -96 70 1 0 0 0 1 0 0 0 1 3009.dat
1 71 220 -96 70 1 0 0 0 1 0 0 0 1 3010.dat
1 71 120 -96 90 1 0 0 0 1 0 0 0 1 3009.dat
1 71 220 -96 90 1 0 0 0 1 0 0 0 1 3010.dat
1 71 120 -96 110 1 0 0 0 1 0 0 0 1 3009.dat
1 71 220 -96 110 1 0 0 0 1 0 0 0 1 3010.dat
1 71 120 -96 130 1 0 0 0 1 0 0 0 1 3009.dat
1 71 220 -96 130 1 0 0 0 1 0 0 0 1 3010.dat
1 71 120 -96 150 1 0 0 0 1 0 0 0 1 3009.dat
1 71 220 -96 150 1 0 0 0 1 0 0 0 1 3010.dat
1 71 120 -96 170 1 0 0 0 1 0 0 0 1 3009.dat
1 71 220 -96 170 1 0 0 0 1 0 0 0 1 3010.dat
1 71 120 -96 190 1 0 0 0 1 0 0 0 1 3009.dat
1 71 220 -96 190 1 0 0 0 1 0 0 0 1 3010.dat
1 71 120 -96 210 1 0 0 0 1 0 0 0 1 3009.dat
1 71 220 -96 210 1 0 0 0 1 0 0 0 1 3010.dat
1 71 120 -96 230 1 0 0 0 1 0 0 0 1 3009.dat
1 71 220 -96 230 1 0 0 0 1 0 0 0 1 3010.dat
1 71 120 -96 250 1 0 0 0 1 0 0 0 1 3009.dat
1 71 220 -96 250 1 0 0 0 1 0 0 0 1 3010.dat
0 STEP
1 71 140 -120 90 1 0 0 0 1 0 0 0 1 3009.dat
1 71 220 -120 90 1 0 0 0 1 0 0 0 1 3004.dat
1 71 140 -120 110 1 0 0 0 1 0 0 0 1 3009.dat
1 71 220 -120 110 1 0 0 0 1 0 0 0 1 3004.dat
1 71 140 -120 130 1 0 0 0 1 0 0 0 1 3009.dat
1 71 220 -120 130 1 0 0 0 1 0 0 0 1 3004.dat
1 71 140 -120 150 1 0 0 0 1 0 0 0 1 3009.dat
1 71 220 -120 150 1 0 0 0 1 0 0 0 1 3004.dat
1 71 140 -120 170 1 0 0 0 1 0 0 0 1 3009.dat
1 71 220 -120 170 1 0 0 0 1 0 0 0 1 3004.dat
1 71 140 -120 190 1 0 0 0 1 0 0 0 1 3009.dat
1 71 220 -120 190 1 0 0 0 1 0 0 0 1 3004.dat
1 71 140 -120 210 1 0 0 0 1 0 0 0 1 3009.dat
1 71 220 -120 210 1 0 0 0 1 0 0 0 1 3004.dat
1 71 140 -120 230 1 0 0 0 1 0 0 0 1 3009.dat
1 71 220 -120 230 1 0 0 0 1 0 0 0 1 3004.dat
0 STEP
1 71 160 -144 110 1 0 0 0 1 0 0 0 1 3009.dat
1 71 160 -144 130 1 0 0 0 1 0 0 0 1 3009.dat
1 71 160 -144 150 1 0 0 0 1 0 0 0 1 3009.dat
1 71 160 -144 170 1 0 0 0 1 0 0 0 1 3009.dat
1 71 160 -144 190 1 0 0 0 1 0 0 0 1 3009.dat
1 71 160 -144 210 1 0 0 0 1 0 0 0 1 3009.dat
0 STEP
1 71 160 -168 130 1 0 0 0 1 0 0 0 1 3010.dat
1 71 160 -168 150 1 0 0 0 1 0 0 0 1 3010.dat
1 71 160 -168 170 1 0 0 0 1 0 0 0 1 3010.dat
1 71 160 -168 190 1 0 0 0 1 0 0 0 1 3010.dat
0 STEP
1 71 160 -192 150 1 0 0 0 1 0 0 0 1 3004.dat
1 71 160 -192 170 1 0 0 0 1 0 0 0 1 3004.dat
